#!OML:ASF F:\VICON\USERDATA\INSTALL\Justin_Nancy\Justin_Nancy.ASF
:FULLY-SPECIFIED
:DEGREES
301
root -5.25365 17.3377 6.62728 5.42077 38.3572 6.31065
lowerback 7.17451 -1.38881 -4.51103
upperback 0.308639 -2.1672 1.18545
thorax -3.49092 -0.993906 3.98201
lowerneck -16.3762 -2.79713 -8.97027
upperneck 24.0621 -2.21236 3.37804
head 10.5911 -1.38977 2.41889
rclavicle 4.25399e-014 -9.54166e-015
rhumerus -36.6847 -16.5318 -75.5314
rradius 32.2842
rwrist 4.7116
rhand -13.8362 13.9623
rfingers 7.12502
rthumb 12.2871 -15.6567
lclavicle 4.25399e-014 -9.54166e-015
lhumerus -29.7758 7.85497 83.3505
lradius 33.1782
lwrist -7.12366
lhand -16.2567 22.8865
lfingers 7.12502
lthumb 9.95254 52.6312
rfemur -32.0745 -4.07317 14.5348
rtibia 54.157
rfoot -8.96745 -4.47434
rtoes -5.71505
lfemur -8.25666 -0.0389533 -32.0362
ltibia 26.7356
lfoot -15.4161 -3.29054
ltoes 8.45686
302
root -5.18028 17.3318 6.73504 5.61613 38.5011 6.49673
lowerback 7.3506 -1.40434 -4.57316
upperback 0.199472 -2.20665 1.10285
thorax -3.70039 -1.00503 3.94382
lowerneck -16.4275 -2.84845 -9.14354
upperneck 24.1368 -2.28059 3.56466
head 10.6379 -1.41537 2.50674
rclavicle -5.76476e-015 -2.38542e-015
rhumerus -37.1161 -16.881 -75.5415
rradius 32.4624
rwrist 4.89637
rhand -13.956 14.3423
rfingers 7.12502
rthumb 12.1715 -15.2836
lclavicle -5.76476e-015 -2.38542e-015
lhumerus -29.6363 7.1597 83.4161
lradius 33.8062
lwrist -6.63
lhand -16.1538 22.615
lfingers 7.12502
lthumb 10.0518 52.3549
rfemur -32.3811 -3.85748 14.4302
rtibia 51.8024
rfoot -9.27091 -4.75518
rtoes -4.53734
lfemur -7.66759 -8.69123e-005 -32.1394
ltibia 26.4645
lfoot -15.7156 -3.3927
ltoes 8.98573
303
root -5.10133 17.3372 6.84777 6.12877 38.523 7.06727
lowerback 7.26606 -1.39646 -5.03229
upperback 0.150157 -2.23534 1.01655
thorax -3.68798 -1.01145 4.11345
lowerneck -16.4287 -2.88102 -9.35533
upperneck 24.0809 -2.32608 3.78542
head 10.6264 -1.42837 2.61505
rclavicle 5.85421e-014 -7.95139e-015
rhumerus -37.3012 -17.0177 -75.4817
rradius 32.5222
rwrist 5.13281
rhand -13.7764 14.1673
rfingers 7.12502
rthumb 12.3447 -15.4482
lclavicle 5.85421e-014 -7.95139e-015
lhumerus -29.452 6.72647 83.6016
lradius 34.4738
lwrist -6.16427
lhand -16.2206 24.0121
lfingers 7.12502
lthumb 9.98734 53.7552
rfemur -32.6947 -3.63324 13.9606
rtibia 49.2052
rfoot -8.74861 -5.00228
rtoes -2.40842
lfemur -7.0714 0.0774527 -32.5818
ltibia 26.1218
lfoot -15.9674 -3.55032
ltoes 10.3629
304
root -5.02534 17.351 6.97653 6.19774 38.5963 7.05483
lowerback 7.01007 -1.41816 -5.3105
upperback 0.239054 -2.26571 1.16189
thorax -3.4321 -1.03094 4.41317
lowerneck -16.5297 -2.89228 -9.59711
upperneck 24.031 -2.31686 3.98404
head 10.6327 -1.42127 2.7278
rclavicle 3.40916e-014 8.74653e-015
rhumerus -37.1407 -16.8866 -75.503
rradius 32.3602
rwrist 5.21912
rhand -14.1194 14.317
rfingers 7.12502
rthumb 12.014 -15.3182
lclavicle 3.40916e-014 8.74653e-015
lhumerus -29.0931 6.53562 83.7614
lradius 34.9706
lwrist -5.83434
lhand -16.2859 25.2075
lfingers 7.12502
lthumb 9.92434 54.9535
rfemur -32.6542 -3.14959 14.0064
rtibia 46.3846
rfoot -8.25411 -5.563
rtoes 3.98337
lfemur -6.41109 0.357008 -32.4959
ltibia 25.7617
lfoot -16.3786 -3.35081
ltoes 9.76009
305
root -4.96737 17.3693 7.13164 5.46693 38.5925 5.93595
lowerback 6.79589 -1.38069 -5.05861
upperback 0.333948 -2.1704 1.50201
thorax -3.21988 -0.994134 4.60765
lowerneck -16.6532 -2.89528 -9.64319
upperneck 24.082 -2.3413 4.1532
head 10.679 -1.4165 2.7941
rclavicle -5.62561e-014 -1.43125e-014
rhumerus -37.0516 -16.8449 -75.6575
rradius 32.0853
rwrist 5.1849
rhand -14.5031 14.6852
rfingers 7.12502
rthumb 11.644 -14.9713
lclavicle -5.62561e-014 -1.43125e-014
lhumerus -28.9023 6.08711 83.7044
lradius 35.5811
lwrist -5.38301
lhand -16.2723 25.5399
lfingers 7.12502
lthumb 9.93742 55.2853
rfemur -32.4755 -1.93805 15.072
rtibia 43.653
rfoot -7.95872 -6.75617
rtoes 7.55596
lfemur -5.44442 0.573611 -31.3862
ltibia 24.9703
lfoot -16.9149 -2.22438
ltoes 7.19104
306
root -4.9219 17.3847 7.27901 4.79033 38.1915 4.76593
lowerback 6.72501 -1.18404 -4.83262
upperback 0.322571 -1.87494 1.86669
thorax -3.22106 -0.847746 4.83392
lowerneck -16.6634 -2.87963 -9.47514
upperneck 24.0817 -2.31688 3.97089
head 10.6746 -1.41162 2.70297
rclavicle -1.77713e-013 1.90833e-014
rhumerus -37.16 -16.9779 -75.6357
rradius 31.9474
rwrist 5.26342
rhand -14.1857 14.5404
rfingers 7.12502
rthumb 11.95 -15.0985
lclavicle -1.77713e-013 1.90833e-014
lhumerus -28.7156 6.00504 83.5905
lradius 35.9778
lwrist -5.28752
lhand -15.9905 25.2263
lfingers 7.12502
lthumb 10.2093 54.9585
rfemur -32.3859 -0.167114 16.1405
rtibia 40.701
rfoot -7.09002 -7.93763
rtoes 4.02351
lfemur -4.73922 0.761689 -30.2738
ltibia 24.3259
lfoot -16.5763 -0.331366
ltoes 6.58209
307
root -4.79234 17.3567 7.29951 7.02312 38.943 7.84104
lowerback 7.144 -1.51362 -5.64304
upperback 0.0847149 -2.44044 0.932663
thorax -3.64494 -1.10335 4.38613
lowerneck -16.6856 -2.82318 -9.05027
upperneck 24.0067 -2.24701 3.56245
head 10.6353 -1.38857 2.49206
rclavicle 9.96905e-014 -4.77083e-015
rhumerus -37.2398 -17.0239 -75.7334
rradius 31.9874
rwrist 5.32051
rhand -14.1984 14.3368
rfingers 7.12502
rthumb 11.9378 -15.3028
lclavicle 9.96905e-014 -4.77083e-015
lhumerus -28.3016 6.38117 83.4118
lradius 35.9696
lwrist -5.66847
lhand -16.0237 24.5558
lfingers 7.12502
lthumb 10.1773 54.2896
rfemur -32.5411 -2.72172 13.4637
rtibia 37.9532
rfoot -6.56457 -6.08441
rtoes -1.3355
lfemur -4.02431 0.762654 -33.1449
ltibia 23.5818
lfoot -14.2858 0.614558
ltoes 13.2624
308
root -4.73171 17.3668 7.46624 6.34635 38.9296 7.00189
lowerback 6.87215 -1.47149 -5.57104
upperback 0.245992 -2.35063 1.13304
thorax -3.32885 -1.07293 4.53198
lowerneck -16.6372 -2.78068 -8.81911
upperneck 24.0212 -2.2639 3.58451
head 10.6278 -1.3729 2.45951
rclavicle -1.02374e-013 2.22639e-014
rhumerus -37.3595 -17.207 -75.9208
rradius 32.0237
rwrist 5.31107
rhand -14.3385 14.3083
rfingers 7.12502
rthumb 11.8027 -15.3391
lclavicle -1.02374e-013 2.22639e-014
lhumerus -28.1946 5.87049 83.2125
lradius 36.4328
lwrist -5.21272
lhand -16.3339 24.7073
lfingers 7.12502
lthumb 9.87802 54.4556
rfemur -31.9379 -1.19926 14.1072
rtibia 34.8196
rfoot -6.09626 -7.32661
rtoes -0.529607
lfemur -3.00797 1.2155 -32.2021
ltibia 23.0341
lfoot -15.9965 -2.23228
ltoes 11.2918
309
root -4.65652 17.3734 7.60578 6.2308 39.0634 6.87241
lowerback 6.67201 -1.47296 -5.6539
upperback 0.298349 -2.34576 1.13989
thorax -3.15908 -1.07626 4.57624
lowerneck -16.3481 -2.78904 -8.81945
upperneck 23.8051 -2.35458 3.77876
head 10.5002 -1.38993 2.51524
rclavicle 7.92157e-014 -1.03368e-014
rhumerus -37.4715 -17.4286 -75.9883
rradius 32.0063
rwrist 5.29196
rhand -13.8776 13.9128
rfingers 7.12502
rthumb 12.2472 -15.7086
lclavicle 7.92157e-014 -1.03368e-014
lhumerus -28.3278 4.86259 83.1558
lradius 37.1858
lwrist -4.30648
lhand -16.4679 24.2215
lfingers 7.12502
lthumb 9.74874 53.9758
rfemur -31.5075 -0.849603 14.2701
rtibia 31.7908
rfoot -5.67314 -7.98967
rtoes 1.71272
lfemur -2.08361 1.74043 -31.9245
ltibia 22.4545
lfoot -16.6994 -3.34423
ltoes 9.83039
310
root -4.5933 17.3689 7.71972 6.04412 39.1787 6.21852
lowerback 6.62544 -1.4877 -5.24523
upperback 0.225493 -2.32768 1.32116
thorax -3.21923 -1.06875 4.53338
lowerneck -16.2553 -2.80492 -8.9252
upperneck 23.6363 -2.38819 3.90048
head 10.426 -1.39887 2.57006
rclavicle 2.28602e-015 -6.36111e-015
rhumerus -37.4622 -17.4958 -75.9662
rradius 31.8143
rwrist 5.64206
rhand -13.9218 14.0828
rfingers 7.12502
rthumb 12.2045 -15.5411
lclavicle 2.28602e-015 -6.36111e-015
lhumerus -28.2207 4.44065 83.1587
lradius 37.6748
lwrist -3.78117
lhand -16.2036 23.3789
lfingers 7.12502
lthumb 10.0037 53.1212
rfemur -31.1809 -0.0970157 14.7611
rtibia 28.3688
rfoot -5.2008 -8.85349
rtoes 0.071398
lfemur -1.73188 1.62808 -31.3327
ltibia 22.2631
lfoot -16.8672 -3.03198
ltoes 9.46983
